<svg xmlns="http://www.w3.org/2000/svg" viewBox="0 0 32 32">
  <!-- Shelf brackets -->
  <path d="M4 8v18" stroke="#555" stroke-width="2.5" stroke-linecap="round"/>
  <path d="M28 8v18" stroke="#555" stroke-width="2.5" stroke-linecap="round"/>
  <!-- Shelves -->
  <line x1="3" y1="14" x2="29" y2="14" stroke="#333" stroke-width="2"/>
  <line x1="3" y1="24" x2="29" y2="24" stroke="#333" stroke-width="2"/>
  <!-- Books on top shelf -->
  <rect x="6" y="9" width="3.5" height="5" rx="0.5" fill="#7C3AED"/>
  <rect x="10" y="10" width="3" height="4" rx="0.5" fill="#3B82F6"/>
  <rect x="13.5" y="8.5" width="3.5" height="5.5" rx="0.5" fill="#059669"/>
  <rect x="17.5" y="9.5" width="3" height="4.5" rx="0.5" fill="#FF6B35"/>
  <rect x="21" y="10" width="3.5" height="4" rx="0.5" fill="#E8A0BF"/>
  <!-- Books on bottom shelf -->
  <rect x="7" y="18.5" width="3" height="5.5" rx="0.5" fill="#DC2626"/>
  <rect x="10.5" y="19" width="4" height="5" rx="0.5" fill="#FBBF24"/>
  <rect x="15" y="18" width="3" height="6" rx="0.5" fill="#2D5016"/>
  <rect x="18.5" y="19.5" width="3.5" height="4.5" rx="0.5" fill="#92400e"/>
  <rect x="22.5" y="19" width="3" height="5" rx="0.5" fill="#1a1a2e"/>
</svg>
